<svg version="1.1" xmlns="http://www.w3.org/2000/svg" xmlns:xlink="http://www.w3.org/1999/xlink" width="31.29824" height="27.91784" viewBox="0,0,31.29824,27.91784"><g transform="translate(-219.49884,-133.62748)"><g data-paper-data="{&quot;isPaintingLayer&quot;:true}" fill-rule="nonzero" stroke="none" stroke-linecap="butt" stroke-linejoin="miter" stroke-miterlimit="10" stroke-dasharray="" stroke-dashoffset="0" style="mix-blend-mode: normal"><text transform="translate(220.83998,155.28593) scale(0.5,0.5)" font-size="40" xml:space="preserve" fill="#9966ff" fill-rule="nonzero" stroke="none" stroke-width="1" stroke-linecap="butt" stroke-linejoin="miter" stroke-miterlimit="10" stroke-dasharray="" stroke-dashoffset="0" font-family="Sans Serif" font-weight="normal" text-anchor="start" style="mix-blend-mode: normal"><tspan x="0" dy="0">📷 </tspan></text><path d="M236.9832,147.62734c-0.28092,0.19286 -0.55749,0.39133 -0.8303,0.59465c1.09329,1.05164 2.19815,2.08587 3.3168,3.09565c1.83171,1.65343 7.30638,4.96839 4.91536,7.78278c-1.93348,2.27583 -4.27768,-0.1985 -5.54912,-1.44469c-2.14072,-2.09821 -4.27224,-4.18325 -6.39636,-6.2736c-1.35647,1.25886 -2.6851,2.55374 -4.07971,3.76389c-0.94559,0.82052 -2.04389,1.44783 -3.03226,2.21628c-0.52443,0.40774 -1.59686,2.49406 -1.99589,2.63665c-2.43331,0.86956 -3.56788,-0.8325 -3.82174,-2.75022c-0.27999,-2.11514 4.79422,-5.23189 5.64744,-5.94414c1.28938,-1.07634 2.48342,-2.28442 3.69153,-3.47108c-2.40821,-2.39218 -4.80813,-4.80476 -7.2024,-7.26497c-0.36113,-0.37108 -1.90183,-2.01623 -1.63301,-2.65974c-0.01242,-0.10102 -0.01882,-0.20391 -0.01882,-0.30829c0,-1.38071 1.11929,-2.5 2.5,-2.5c0.51045,0 0.98517,0.15298 1.38081,0.4156c0.31154,0.2068 0.57405,0.48158 0.76636,0.80317c0.33863,0.40488 0.59561,0.76779 0.68157,0.85774c2.35773,2.46717 4.73569,4.96741 7.15998,7.41902c0.58538,-0.439 1.19368,-0.84558 1.8341,-1.20689c4.23016,-2.38655 8.43732,-4.81619 12.72103,-7.10523c0.03901,-0.02277 0.07869,-0.04452 0.11901,-0.0652c0.3417,-0.17528 0.72904,-0.27419 1.13948,-0.27419c1.38071,0 2.5,1.11929 2.5,2.5c0,0.77744 -0.35487,1.472 -0.91147,1.93053c-2.7277,3.88695 -9.67517,5.03669 -12.9024,7.25228z" fill="#66caff" stroke-width="0.5"/></g></g></svg>