<svg version="1.1" xmlns="http://www.w3.org/2000/svg" xmlns:xlink="http://www.w3.org/1999/xlink" width="83" height="83" viewBox="0,0,83,83"><defs><linearGradient x1="197.375" y1="178.1328" x2="280.375" y2="178.1328" gradientUnits="userSpaceOnUse" id="color-1"><stop offset="0" stop-color="#8dc63f"/><stop offset="1" stop-color="#006838"/></linearGradient><radialGradient cx="238.875" cy="178.1328" r="33.9434" gradientUnits="userSpaceOnUse" id="color-2"><stop offset="0" stop-color="#d7df23"/><stop offset="1" stop-color="#009444"/></radialGradient></defs><g transform="translate(-197.375,-136.632)"><g data-paper-data="{&quot;isPaintingLayer&quot;:true}" fill-rule="nonzero" stroke="none" stroke-linecap="butt" stroke-linejoin="miter" stroke-miterlimit="10" stroke-dasharray="" stroke-dashoffset="0" style="mix-blend-mode: normal"><path d="M280.375,178.132c0,22.882 -18.616,41.5 -41.5,41.5c-22.883,0 -41.5,-18.618 -41.5,-41.5c0,-22.883 18.616,-41.5 41.5,-41.5c22.884,0 41.5,18.618 41.5,41.5z" fill="url(#color-1)" stroke-width="1"/><path d="M204.931,178.133c0,-18.74675 15.19725,-33.944 33.944,-33.944c18.74675,0 33.944,15.19725 33.944,33.944c0,18.74675 -15.19725,33.944 -33.944,33.944c-18.74675,0 -33.944,-15.19725 -33.944,-33.944z" fill="url(#color-2)" stroke-width="1"/><path d="M233.17986,213.32906c-2.5,0 -2.5,-2.5 -2.5,-2.5l0.10553,-1.9048c1.43499,-4.77315 2.19715,-8.22121 1.68691,-13.26545c0,0 -0.24889,-2.48758 2.23869,-2.73647c0.23292,-0.0233 0.44621,-0.02262 0.64151,-0.00223c-0.92141,-0.39816 -1.721,-1.05633 -2.63723,-1.47203c-1.3897,-0.63052 -6.63044,-2.22489 -7.56494,-3.57134c-0.13535,-0.19501 -0.68957,-7.52913 -0.69872,-7.78997c-0.13735,-3.91398 0.86231,-5.73476 2.6913,-9.02891c1.78699,-3.21849 3.44307,-6.58215 5.67299,-9.5437c-0.05934,-0.29428 -0.05934,-0.50077 -0.05934,-0.50077l0.00864,-1.98684c0.35366,-4.23863 0.52315,-8.46819 1.21208,-12.6574c0,0 0.4112,-2.46595 2.87715,-2.05475c2.46595,0.4112 2.05475,2.87715 2.05475,2.87715c-0.51634,3.04932 -0.72042,6.14028 -0.93605,9.23307c1.88123,-1.68063 3.79474,-3.38662 3.92564,-3.50344c0,0 1.86526,-1.66457 3.52983,0.20069c1.66457,1.86526 -0.20069,3.52983 -0.20069,3.52983c-2.41864,2.15841 -5.09688,4.05488 -7.26601,6.46391c-2.74331,3.04671 -4.49212,6.85525 -6.45855,10.38897c-1.44777,2.60169 -2.21842,3.3359 -2.05544,6.3902c0.06867,1.2869 0.3225,2.56632 0.29667,3.85479c-0.00975,0.48614 -0.67753,1.00153 -0.40205,1.4022c0.29248,0.4254 1.0388,0.08058 1.53023,0.23871c1.34629,0.43319 2.67104,0.94169 3.95835,1.52733c3.45634,1.5724 5.75428,2.14315 9.62223,2.13731h2.67003c0,0 2.5,0 2.5,2.5c0,2.5 -2.5,2.5 -2.5,2.5h-2.67003c-2.6448,-0.0036 -5.49123,0.00673 -8.07391,-0.77253c0.94433,0.64232 1.06801,1.87842 1.06801,1.87842c0.55931,5.64708 -0.27022,9.85116 -1.87313,15.20064l0.10553,0.4674c0,0 0,2.5 -2.5,2.5z" fill="#66caff" stroke-width="0.5"/></g></g></svg>