<svg version="1.1" xmlns="http://www.w3.org/2000/svg" xmlns:xlink="http://www.w3.org/1999/xlink" width="134.29454" height="149.04055" viewBox="0,0,134.29454,149.04055"><g transform="translate(-165.14909,-109.28938)"><g data-paper-data="{&quot;isPaintingLayer&quot;:true}" fill="#9966ff" fill-rule="nonzero" stroke="none" stroke-linecap="butt" stroke-linejoin="miter" stroke-miterlimit="10" stroke-dasharray="" stroke-dashoffset="0" style="mix-blend-mode: normal"><text transform="translate(200.53004,185.76875) scale(0.5,0.5)" font-size="40" xml:space="preserve" fill="#9966ff" fill-rule="nonzero" stroke="none" stroke-width="1" stroke-linecap="butt" stroke-linejoin="miter" stroke-miterlimit="10" stroke-dasharray="" stroke-dashoffset="0" font-family="Sans Serif" font-weight="normal" text-anchor="start" style="mix-blend-mode: normal"><tspan x="0" dy="0">10 steps</tspan></text><path d="M179.26049,131.81051c1.27395,-0.1579 1.97484,0.41943 2.35528,1.01856c0.33722,-1.21697 1.66572,-1.65959 1.66572,-1.65959c3.05598,-1.01603 5.97862,-2.39884 9.00288,-3.50575c16.19931,-5.92914 33.72281,-10.00115 50.54789,-13.73594c7.60482,-1.6881 14.67983,-3.79011 22.4628,-4.6384c1.39452,0.37788 2.99768,0.3083 4.18357,1.13362c3.62911,2.52568 6.00335,7.67189 8.83615,11.01102c2.55906,3.01647 6.20362,5.53054 9.49599,7.64987c1.49852,0.96462 3.37136,1.42 4.61887,2.6927c1.32602,1.3528 1.90526,3.27475 2.84348,4.9204c1.18932,2.08608 3.15656,5.61776 3.60976,7.61813c1.75777,7.75851 -1.09814,15.6936 -1.99174,23.30834c-0.91749,7.81843 -1.28226,15.7494 -1.84324,23.59981c-0.50894,6.90536 -2.55483,13.27324 -4.36267,19.94057c-1.53094,5.64611 -2.91542,12.06917 -8.52468,15.31544c-1.04776,0.60638 -6.36649,1.54654 -7.49912,1.78717c-4.67763,0.99377 -9.81703,1.73096 -14.35305,3.24427c-4.56775,1.5239 -9.07809,4.05197 -13.47955,6.01033c-6.56812,2.92238 -13.17791,5.75249 -19.77152,8.61685c-13.99678,5.44203 -28.20018,12.18279 -43.45734,12.18995c-5.37497,0.00252 -13.49929,0.23302 -16.7158,-5.01716c-3.80679,-6.21368 -0.37521,-13.31179 1.08592,-19.38851c0.30392,-1.26398 0.55573,-6.07546 0.8784,-7.78118c0.02381,-0.12584 2.27032,-9.66268 2.32082,-9.87722c1.23694,-5.25403 3.15612,-10.85652 3.66182,-16.22441c0.86417,-9.17291 -1.0837,-18.35118 -0.76346,-27.5288c0.44019,-12.61532 4.65445,-24.8956 3.06563,-37.53806l-0.04629,-0.37349c0,0 -0.30752,-2.48101 2.1735,-2.78853zM182.19647,135.25791c1.29675,12.65936 -2.69121,24.79886 -3.13185,37.42703c-0.3247,9.30544 1.63068,18.59043 0.73662,27.90028c-0.53545,5.57559 -2.48092,11.36937 -3.76498,16.8243c-0.75266,3.1972 -1.64813,6.36391 -2.26214,9.59061c-0.50704,2.66456 -0.31526,5.44326 -0.94057,8.08256c-1.21689,5.13618 -4.25546,10.33223 -1.59884,15.76368c0.88115,1.8015 2.10503,1.33581 3.86088,1.62967c2.80912,0.47013 5.65382,0.85317 8.50202,0.85181c14.54765,-0.00692 28.20823,-6.62666 41.55722,-11.81387c6.54966,-2.84721 13.11642,-5.6579 19.64143,-8.56115c4.54906,-2.02407 9.20961,-4.61037 13.92976,-6.18512c4.71328,-1.57245 10.04163,-2.36068 14.90323,-3.39357c1.99977,-0.42487 4.2369,-0.19939 6.01192,-1.21374c4.29573,-2.45484 5.07386,-8.0843 6.21832,-12.30507c1.71848,-6.33777 3.74833,-12.42564 4.20113,-18.98846c0.56783,-7.94574 0.93802,-15.97365 1.87206,-23.88648c0.82394,-6.98014 3.64425,-14.46376 2.07135,-21.57132c-0.34901,-1.57709 -2.21077,-4.6295 -3.10117,-6.28292c-0.68259,-1.26753 -1.00123,-2.79781 -2.01484,-3.82013c-0.9987,-1.00727 -2.55462,-1.24601 -3.75595,-2.00023c-0.49872,-0.31311 -6.49469,-4.60858 -7.36999,-5.37783c-3.26754,-2.87164 -5.69464,-6.55561 -8.389,-9.9407c-1.1932,-1.49908 -2.51391,-3.32943 -4.39216,-3.70776c-7.24985,0.96886 -13.94166,2.94634 -21.06451,4.52933c-12.01154,2.66947 -23.86242,5.93183 -35.67321,9.38841c-4.69764,1.37482 -9.64419,2.47428 -14.23789,4.16099c-3.06966,1.12712 -6.04161,2.51943 -9.14337,3.5549c0,0 -1.66027,0.55315 -2.66545,-0.65522z" stroke-width="0.5"/></g></g></svg>